<svg width="100%" viewBox="0 0 64 64" preserveAspectRatio="xMidYMid meet" xmlns="http://www.w3.org/2000/svg" xmlns:xlink="http://www.w3.org/1999/xlink" xml:space="preserve"><style type="text/css">@-webkit-keyframes keys0e22526b{0%{-webkit-transform:translate(0,0);-ms-transform:translate(0,0);transform:translate(0,0);}100%{-webkit-transform:translate(-500%,0);-ms-transform:translate(-500%,0);transform:translate(-500%,0);}}@keyframes keys0e22526b{0%{-webkit-transform:translate(0,0);-ms-transform:translate(0,0);transform:translate(0,0);}100%{-webkit-transform:translate(-500%,0);-ms-transform:translate(-500%,0);transform:translate(-500%,0);}}.root41311c4d{-webkit-animation:keys0e22526b 1200ms steps(5) infinite;animation:keys0e22526b 1200ms steps(5) infinite;}@-webkit-keyframes keys-b73023b5{0%{visibility:visible;}20%{visibility:hidden;}100%{visibility:hidden;}}@keyframes keys-b73023b5{0%{visibility:visible;}20%{visibility:hidden;}100%{visibility:hidden;}}@media screen and (min-width:0\0){.f04855d2ab,.f1e35089ed,.f29295be27,.f302b6b2ea,.f44fb2d460{-webkit-animation:keys-b73023b5 1200ms steps(5) infinite;animation:keys-b73023b5 1200ms steps(5) infinite;visibility:hidden;}.f04855d2ab{-webkit-animation-delay:0ms;animation-delay:0ms;}.f1e35089ed{-webkit-animation-delay:240ms;animation-delay:240ms;}.f29295be27{-webkit-animation-delay:480ms;animation-delay:480ms;}.f302b6b2ea{-webkit-animation-delay:720ms;animation-delay:720ms;}.f44fb2d460{-webkit-animation-delay:960ms;animation-delay:960ms;}.f04855d2ab{visibility:visible;}}</style><g class="root41311c4d"><path d="M40 21h-3v-3h3v3zm-12-3h-3v3h3v-3zm9-3h-3v3h3v-3zm-3 3h-3v3h3v-3zm-3 3h-3v3h3v-3zm6 0h-3v3h3v-3zm-3 3h-3v3h3v-3zm0 13h-3v3h3v-3zm3-6v2l9 9v18H19V42l9-9v-2l-9-9V4h27v18l-9 9zm-3 3.2v-4.5l9-9V7H22v13.8l9 9v4.5l-9 9V57h3v-3h3v3h3v-3h3v3h3v-3h3v3h3V43.2l-9-9zM34 51v3h3v-3h-3zm-6 0v3h3v-3h-3zm6-3h-3v3h3v-3z" class="f04855d2ab" style="transform:translate(0px,0);"/><path d="M37 51v3h-3v-3h3zm-9 0v3h3v-3h-3zm3-3v3h3v-3h-3zm-3 0h-3v3h3v-3zm3-3h-3v3h3v-3zm3-3h-3v3h3v-3zm3 6v-3h-3v3h3zm0 0v3h3v-3h-3zm0-17v2l9 9v18H19V42l9-9v-2l-9-9V4h27v18l-9 9zm-3 3.2v-4.5l9-9V7H22v13.8l9 9v4.5l-9 9V51h3v3h-3v3h3v-3h3v3h3v-3h3v3h3v-3h3v3h3v-3h-3v-3h3v-7.8l-9-9z" class="f1e35089ed" style="transform:translate(64px,0);"/><path d="M21.7 49.1l-2.1 2.1-2.1-2.1 2.1-2.1 2.1 2.1zm-6.3-6.3l-2.1 2.1 2.1 2.1 2.1-2.1-2.1-2.1zm4.2 0l-2.1 2.1 2.1 2.1 2.1-2.1-2.1-2.1zm-2.1-2.2l-2.1-2.1-2.1 2.1 2.1 2.1 2.1-2.1zm4.2 0l-2.1-2.1-2.1 2.1 2.1 2.1 2.1-2.1zm4.3 0l-2.1-2.1-2.1 2.1 2.1 2.1 2.1-2.1zM23.9 47l2.1-2.1-2.1-2.1-2.1 2.1 2.1 2.1zm0 0l-2.1 2.1 2.1 2.1 2.1-2.1-2.1-2.1zm12-12l-1.4 1.4v12.7L21.7 61.8l-19-19L15.4 30h12.7l1.4-1.4V15.9L42.3 3.2l19.1 19.1L48.6 35H35.9zm-4.4.1l3.2-3.2h12.7l9.7-9.7L42.3 7.4l-9.7 9.7v12.7L29.4 33H16.6l-5.5 5.5 2.1 2.1-2.1 2.1L9 40.6l-2.1 2.1L9 44.9l2.1-2.1 2.1 2.1-2.1 2.1 2.1 2.1 2.1-2.1 2.1 2.1-2.1 2.1 2.1 2.1 2.1-2.1 2.1 2.1-2.1 2.1 2.1 2.1 2.1-2.1-2.1-2.1 2.1-2.1 2.1 2.1 5.5-5.5V35.1h.2z" class="f29295be27" style="transform:translate(128px,0);"/><path d="M15.4 22.2l-2.1-2.1 2.1-2.1 2.1 2.1-2.1 2.1zm6.3-6.3l-2.1-2.1-2.1 2.1 2.1 2.1 2.1-2.1zm0 4.2L19.6 18l-2.1 2.1 2.1 2.1 2.1-2.1zm2.2-2.1l2.1-2.1-2.1-2.1-2.1 2.1 2.1 2.1zm0 4.2l2.1-2.1-2.1-2.1-2.1 2.1 2.1 2.1zm0 4.3l2.1-2.1-2.1-2.1-2.1 2.1 2.1 2.1zm-6.4-2.1l2.1 2.1 2.1-2.1-2.1-2.1-2.1 2.1zm0 0l-2.1-2.1-2.1 2.1 2.1 2.1 2.1-2.1zm12 12L28.1 35H15.4L2.7 22.2l19-19 12.7 12.7v12.7l1.4 1.4h12.7l12.7 12.7-18.9 19.1-12.8-12.7V36.4zm-.1-4.4l3.2 3.2v12.7l9.7 9.7 14.8-14.8-9.7-9.8H34.6l-3.2-3.2V17.1L26 11.6l-2.1 2.1-2.1-2.1 2.1-2.1-2.1-2.1-2.1 2.1 2.1 2.1-2.1 2.1-2.1-2.1-2.1 2.1 2.1 2.1-2.2 2.2-2.1-2.1-2.2 2.1 2.1 2.1-2.1 2.1L9 20.1l-2.1 2.1L9 24.4l2.1-2.1 2.1 2.1-2.1 2.1 5.5 5.5h12.8z" class="f302b6b2ea" style="transform:translate(192px,0);"/><path d="M28 13v-3h3v3h-3zm9 0v-3h-3v3h3zm-3 3v-3h-3v3h3zm3 0h3v-3h-3v3zm-3 3h3v-3h-3v3zm-3 3h3v-3h-3v3zm-3-6v3h3v-3h-3zm0 0v-3h-3v3h3zm0 17v-2l-9-9V4h27v18l-9 9v2l9 9v18H19V42l9-9zm3-3.2v4.5l-9 9V57h21V43.2l-9-9v-4.5l9-9V13h-3v-3h3V7h-3v3h-3V7h-3v3h-3V7h-3v3h-3V7h-3v3h3v3h-3v7.8l9 9z" class="f44fb2d460" style="transform:translate(256px,0);"/></g></svg>