<?xml version="1.0" encoding="utf-8"?>
<!-- Generator: Adobe Illustrator 19.2.1, SVG Export Plug-In . SVG Version: 6.00 Build 0)  -->
<svg version="1.1" id="Layer_1" xmlns="http://www.w3.org/2000/svg" xmlns:xlink="http://www.w3.org/1999/xlink" x="0px" y="0px"
	 viewBox="0 0 64 64" style="enable-background:new 0 0 64 64;" xml:space="preserve">
<g id="frame-01_1_">
	<path d="M40,21h-3v-3h3V21z M28,18h-3v3h3V18z M37,15h-3v3h3V15z M34,18h-3v3h3V18z M31,21h-3v3h3V21z M37,21h-3v3h3V21z M34,24h-3
		v3h3V24z M34,37h-3v3h3V37z M37,31v2l9,9v18H19V42l9-9v-2l-9-9V4h27v18L37,31z M34,34.2v-4.5l9-9V7H22v13.8l9,9v4.5l-9,9V57h3v-3h3
		v3h3v-3h3v3h3v-3h3v3h3V43.2L34,34.2z M34,51v3h3v-3H34z M28,51v3h3v-3H28z M34,48h-3v3h3V48z"/>
</g>
<g id="frame-02">
	<path d="M37,51v3h-3v-3H37z M28,51v3h3v-3H28z M31,48v3h3v-3H31z M28,48h-3v3h3V48z M31,45h-3v3h3V45z M34,42h-3v3h3V42z M37,48v-3
		h-3v3H37z M37,48v3h3v-3H37z M37,31v2l9,9v18H19V42l9-9v-2l-9-9V4h27v18L37,31z M34,34.2v-4.5l9-9V7H22v13.8l9,9v4.5l-9,9V51h3v3
		h-3v3h3v-3h3v3h3v-3h3v3h3v-3h3v3h3v-3h-3v-3h3v-7.8L34,34.2z"/>
</g>
<g id="frame-03">
	<path d="M21.7,49.1l-2.1,2.1l-2.1-2.1l2.1-2.1L21.7,49.1z M15.4,42.8l-2.1,2.1l2.1,2.1l2.1-2.1L15.4,42.8z M19.6,42.8l-2.1,2.1
		l2.1,2.1l2.1-2.1L19.6,42.8z M17.5,40.6l-2.1-2.1l-2.1,2.1l2.1,2.1L17.5,40.6z M21.7,40.6l-2.1-2.1l-2.1,2.1l2.1,2.1L21.7,40.6z
		 M26,40.6l-2.1-2.1l-2.1,2.1l2.1,2.1L26,40.6z M23.9,47l2.1-2.1l-2.1-2.1l-2.1,2.1L23.9,47z M23.9,47l-2.1,2.1l2.1,2.1l2.1-2.1
		L23.9,47z M35.9,35l-1.4,1.4v12.7L21.7,61.8l-19-19L15.4,30h12.7l1.4-1.4V15.9L42.3,3.2l19.1,19.1L48.6,35H35.9z M31.5,35.1
		l3.2-3.2h12.7l9.7-9.7L42.3,7.4l-9.7,9.7v12.7L29.4,33H16.6l-5.5,5.5l2.1,2.1l-2.1,2.1L9,40.6l-2.1,2.1L9,44.9l2.1-2.1l2.1,2.1
		L11.1,47l2.1,2.1l2.1-2.1l2.1,2.1l-2.1,2.1l2.1,2.1l2.1-2.1l2.1,2.1l-2.1,2.1l2.1,2.1l2.1-2.1l-2.1-2.1l2.1-2.1l2.1,2.1l5.5-5.5
		V35.1H31.5z"/>
</g>
<g id="frame-04">
	<path d="M15.4,22.2l-2.1-2.1l2.1-2.1l2.1,2.1L15.4,22.2z M21.7,15.9l-2.1-2.1l-2.1,2.1l2.1,2.1L21.7,15.9z M21.7,20.1L19.6,18
		l-2.1,2.1l2.1,2.1L21.7,20.1z M23.9,18l2.1-2.1l-2.1-2.1l-2.1,2.1L23.9,18z M23.9,22.2l2.1-2.1L23.9,18l-2.1,2.1L23.9,22.2z
		 M23.9,26.5l2.1-2.1l-2.1-2.1l-2.1,2.1L23.9,26.5z M17.5,24.4l2.1,2.1l2.1-2.1l-2.1-2.1L17.5,24.4z M17.5,24.4l-2.1-2.1l-2.1,2.1
		l2.1,2.1L17.5,24.4z M29.5,36.4L28.1,35H15.4L2.7,22.2l19-19l12.7,12.7v12.7l1.4,1.4h12.7l12.7,12.7L42.3,61.8L29.5,49.1V36.4z
		 M29.4,32l3.2,3.2v12.7l9.7,9.7l14.8-14.8L47.4,33H34.6l-3.2-3.2V17.1L26,11.6l-2.1,2.1l-2.1-2.1l2.1-2.1l-2.1-2.1l-2.1,2.1
		l2.1,2.1l-2.1,2.1l-2.1-2.1l-2.1,2.1l2.1,2.1L15.4,18l-2.1-2.1L11.1,18l2.1,2.1l-2.1,2.1L9,20.1l-2.1,2.1L9,24.4l2.1-2.1l2.1,2.1
		l-2.1,2.1l5.5,5.5H29.4z"/>
</g>
<g id="frame-05">
	<path d="M28,13v-3h3v3H28z M37,13v-3h-3v3H37z M34,16v-3h-3v3H34z M37,16h3v-3h-3V16z M34,19h3v-3h-3V19z M31,22h3v-3h-3V22z
		 M28,16v3h3v-3H28z M28,16v-3h-3v3H28z M28,33v-2l-9-9V4h27v18l-9,9v2l9,9v18H19V42L28,33z M31,29.8v4.5l-9,9V57h21V43.2l-9-9v-4.5
		l9-9V13h-3v-3h3V7h-3v3h-3V7h-3v3h-3V7h-3v3h-3V7h-3v3h3v3h-3v7.8L31,29.8z"/>
</g>
</svg>
